# AST/ASF file generated using VICON BodyLanguage
# -----------------------------------------------
:version 1.10
:name VICON
:units
  mass 1.0
  length 0.45
  angle deg
:documentation
   .ast/.asf automatically generated from VICON data using
   VICON BodyBuilder and BodyLanguage model FoxedUp or BRILLIANT.MOD
:root
   order TX TY TZ RX RY RZ
   axis XYZ
   position 0 0 0  
   orientation 0 0 0 
:bonedata
  begin
     id 1 
     name lhipjoint
     direction 0.722297 -0.617336 0.311742 
     length 2.6635 
     axis 0 0 0  XYZ
  end
  begin
     id 2 
     name lfemur
     direction 0.34202 -0.939693 0  
     length 7.39349  
     axis 0 0 20  XYZ
    dof rx ry rz
    limits (-160.0 20.0)
           (-70.0 70.0)
           (-60.0 70.0)
  end
  begin
     id 3 
     name ltibia
     direction 0.34202 -0.939693 0   
     length 7.36294   
     axis 0 0 20   XYZ
    dof rx
    limits (-10.0 170.0)
  end
  begin
     id 4 
     name lfoot
     direction 0.104879 -0.288152 0.951824   
     length 2.16981   
     axis -90 7.62852e-016 20   XYZ
    dof rx rz
    limits (-45.0 90.0)
           (-70.0 20.0)
  end
  begin
     id 5 
     name ltoes
     direction 1.53586e-011 -4.21895e-011 1   
     length 1.08218   
     axis -90 7.62852e-016 20   XYZ
    dof rx
    limits (-90.0 20.0)
  end
  begin
     id 6 
     name rhipjoint
     direction -0.75102 -0.589393 0.297631   
     length 2.78977  
     axis 0 0 0  XYZ 
  end
  begin
     id 7 
     name rfemur
     direction -0.34202 -0.939693 0   
     length 7.46076   
     axis 0 0 -20   XYZ
    dof rx ry rz
    limits (-160.0 20.0)
           (-70.0 70.0)
           (-70.0 60.0)
  end
  begin
     id 8 
     name rtibia
     direction -0.34202 -0.939693 0   
     length 7.31726   
     axis 0 0 -20   XYZ
    dof rx
    limits (-10.0 170.0)
 end
 begin
     id 9 
     name rfoot
     direction -0.107991 -0.296704 0.948844   
     length 2.09388  
     axis -90 -7.62852e-016 -20   XYZ
    dof rx rz
    limits (-45.0 90.0)
           (-20.0 70.0)
  end
  begin
     id 10 
     name rtoes
     direction -1.53559e-011 -4.21911e-011 1   
     length 1.04433   
     axis -90 -7.62852e-016 -20   XYZ
    dof rx
    limits (-90.0 20.0)
  end
  begin
     id 11 
     name lowerback
     direction 0.0165164 0.98272 0.184358   
     length 1.71896   
     axis 0 0 0   XYZ
    dof rx ry rz
    limits (-20.0 45.0)
           (-30.0 30.0)
           (-30.0 30.0)
  end
  begin
     id 12 
     name upperback
     direction -0.00887249 0.992297 0.123566   
     length 1.71504   
     axis 0 0 0   XYZ
    dof rx ry rz
    limits (-20.0 45.0)
           (-30.0 30.0)
           (-30.0 30.0)
  end
  begin
     id 13 
     name thorax
     direction -0.0157026 0.998908 0.0440032   
     length 1.77022   
     axis 0 0 0   XYZ
    dof rx ry rz
    limits (-20.0 45.0)
           (-30.0 30.0)
           (-30.0 30.0)
  end
  begin
     id 14 
     name lowerneck
     direction -0.0238856 0.998137 0.0561411   
     length 1.89341   
     axis 0 0 0   XYZ
    dof rx ry rz
    limits (-20.0 45.0)
           (-30.0 30.0)
           (-30.0 30.0)
  end
  begin
     id 15 
     name upperneck
     direction 0.0276574 0.952253 -0.304056   
     length 1.86999   
     axis 0 0 0   XYZ
    dof rx ry rz
    limits (-20.0 45.0)
           (-30.0 30.0)
           (-30.0 30.0)
  end
  begin
     id 16
     name head
     direction 0.00800083 0.994258 -0.106712  
     length 1.91492  
     axis 0 0 0   XYZ
    dof rx ry rz
    limits (-20.0 45.0)
           (-30.0 30.0)
           (-30.0 30.0)
  end
  begin
     id 17 
     name lclavicle
     direction 0.97203 0.225407 0.06595  
     length 3.34889  
     axis 0 0 0   XYZ
    dof ry rz
    limits (-20.0 10.0)
           (0.0 20.0)
  end
  begin
     id 18 
     name lhumerus
     direction 1 -4.48973e-011 2.20267e-027   
     length 4.85645   
     axis 180 -30 -90   XYZ
    dof rx ry rz
    limits (-60.0 90.0)
           (-90.0 90.0)
           (-90.0 90.0)
  end
  begin
     id 19
     name lradius
     direction 1 -4.4897e-011 4.60472e-027   
     length 2.79874   
     axis 180 -30 -90   XYZ
    dof rx
    limits (-10.0 170.0)
  end
  begin
     id 20
     name lwrist
     direction 1 -4.48952e-011 1.14928e-026   
     length 1.39937   
     axis -6.29373e-015 90 90   XYZ
    dof ry
    limits (-180.0 0.0)
 end
  begin
     id 21 
     name lhand
     direction 1 -4.48967e-011 2.29886e-026   
     length 0.573398   
     axis -1.46689e-014 90 90   XYZ
    dof rx rz
    limits (-90.0 90.0)
           (-45.0 45.0)
  end
  begin
     id 22 
     name lfingers
     direction 1 -4.48955e-011 4.59726e-026   
     length 0.462289   
     axis -2.93383e-014 90 90   XYZ
    dof rx
    limits (0.0 90.0)
  end
  begin
     id 23
     name lthumb
     direction 0.707107 -6.34866e-011 0.707107   
     length 0.663757   
     axis -90 45 5.69224e-014   XYZ
    dof rx rz
    limits (-45.0 45.0)
           (-45.0 45.0)
  end
  begin
     id 24 
     name rclavicle
     direction -0.981571 0.157346 0.108443   
     length 3.35257  
     axis 0 0 0   XYZ 
    dof ry rz
    limits (-10.0 20.0)
           (-20.0 0.0)
  end
  begin
     id 25 
     name rhumerus
     direction -1 -4.48967e-011 8.58308e-029  
     length 4.67018   
     axis 180 30 90   XYZ
    dof rx ry rz
    limits (-90.0 60.0)
           (-90.0 90.0)
           (-90.0 90.0)
  end
  begin
     id 26 
     name rradius
     direction -1 -4.48958e-011 4.52548e-027   
     length 2.65534   
     axis 180 30 90   XYZ
    dof rx
    limits (-10.0 170.0)
  end
  begin
     id 27 
     name rwrist
     direction -1 -4.48977e-011 1.14952e-026   
     length 1.32767   
     axis -6.29373e-015 -90 -90   XYZ
    dof ry
    limits (-180.0 0.0)
  end
  begin
     id 28
     name rhand
     direction -1 -4.48924e-011 2.29804e-026   
     length 0.594069   
     axis -1.46689e-014 -90 -90   XYZ
    dof rx rz
    limits (-90.0 90.0)
           (-45.0 45.0)
  end
  begin
     id 29
     name rfingers
     direction -1 -4.48998e-011 4.59888e-026   
     length 0.478954   
     axis -2.93383e-014 -90 -90   XYZ
    dof rx
    limits (0.0 90.0)
  end
  begin
     id 30
     name rthumb
     direction -0.707107 -6.34933e-011 0.707107   
     length 0.687685   
     axis -90 -45 -5.69224e-014   XYZ
    dof rx rz
    limits (-45.0 45.0)
           (-45.0 45.0)
  end
:hierarchy
  begin
    root lhipjoint rhipjoint lowerback
    lhipjoint lfemur
    lfemur ltibia
    ltibia lfoot
    lfoot ltoes
    rhipjoint rfemur
    rfemur rtibia
    rtibia rfoot
    rfoot rtoes
    lowerback upperback
    upperback thorax
    thorax lowerneck lclavicle rclavicle
    lowerneck upperneck
    upperneck head
    lclavicle lhumerus
    lhumerus lradius
    lradius lwrist
    lwrist lhand lthumb
    lhand lfingers
    rclavicle rhumerus
    rhumerus rradius
    rradius rwrist
    rwrist rhand rthumb
    rhand rfingers
  end

#!OML:ASF E:\pregnant2\Project 1\Capture day 1\Session 1\pregnant2.ASF
:FULLY-SPECIFIED
:DEGREES
703
root -3.32326 4.67136 17.9333 4.14276 -1.91821 -27.8234
lowerback 3.75867 6.86122 -0.94203
upperback -3.33591 8.95652 -2.73888
thorax -5.25804 4.41319 -3.03801
lowerneck -19.2797 -2.90297 -7.15571
upperneck 36.3696 0.0526498 -3.21627
head 16.3806 -1.43469 -0.143277
rclavicle 6.36111e-015 -6.36111e-015
rhumerus 34.9204 20.0029 -27.3874
rradius 41.643
rwrist 9.30191
rhand -1.94988 -3.92514
rfingers 7.12502
rthumb 23.7215 -32.4812
lclavicle 6.36111e-015 -6.36111e-015
lhumerus -55.3949 1.1945 60.8801
lradius 32.9308
lwrist -3.60577
lhand -39.8804 73.1959
lfingers 7.12502
lthumb -12.8525 257.22
rfemur -125.939 -12.5093 50.1211
rtibia 140.249
rfoot -15.31 3.47228
rtoes -2.23666
lfemur -141.563 -5.33387 -35.9596
ltibia 140.633
lfoot -11.1968 20.8803
ltoes 40.9954
704
root -3.3154 4.65798 17.9285 4.10019 -1.88951 -27.7563
lowerback 3.75054 6.84153 -0.94343
upperback -3.33146 8.93341 -2.68747
thorax -5.25799 4.40294 -2.98171
lowerneck -19.2632 -2.97876 -7.27582
upperneck 36.3245 0.0157391 -3.30646
head 16.3592 -1.47828 -0.168506
rclavicle -5.88403e-014 3.49861e-014
rhumerus 34.1265 20.0823 -27.1444
rradius 41.9087
rwrist 8.86241
rhand -2.32362 -4.11562
rfingers 7.12502
rthumb 23.363 -32.7177
lclavicle -5.88403e-014 3.49861e-014
lhumerus -55.4639 1.16685 61.1006
lradius 32.8985
lwrist -3.54537
lhand -39.9385 73.2582
lfingers 7.12502
lthumb -12.9085 257.161
rfemur -126.099 -12.5854 49.9903
rtibia 140.308
rfoot -15.2093 3.49184
rtoes -2.33041
lfemur -141.558 -5.47231 -36.0828
ltibia 140.607
lfoot -11.1307 20.8818
ltoes 41.0753
705
root -3.30766 4.6447 17.9241 4.05909 -1.8565 -27.6869
lowerback 3.7348 6.82081 -0.950767
upperback -3.32304 8.909 -2.63167
thorax -5.25107 4.39249 -2.91631
lowerneck -19.2568 -3.05496 -7.40161
upperneck 36.2854 -0.0166415 -3.40007
head 16.3437 -1.52152 -0.193637
rclavicle 9.14409e-014 2.22639e-014
rhumerus 33.3202 20.2134 -26.8617
rradius 42.1873
rwrist 8.44645
rhand -2.74002 -4.32501
rfingers 7.12502
rthumb 22.9635 -32.9773
lclavicle 9.14409e-014 2.22639e-014
lhumerus -55.5213 1.15106 61.3248
lradius 32.854
lwrist -3.48418
lhand -39.9961 73.3257
lfingers 7.12502
lthumb -12.964 257.097
rfemur -126.261 -12.6703 49.8603
rtibia 140.371
rfoot -15.1145 3.51866
rtoes -2.42354
lfemur -141.547 -5.61194 -36.2091
ltibia 140.589
lfoot -11.0874 20.8656
ltoes 41.1217
706
root -3.30002 4.63168 17.9197 4.01882 -1.81747 -27.6147
lowerback 3.72419 6.79781 -0.957752
upperback -3.31867 8.88133 -2.57713
thorax -5.25112 4.38025 -2.85323
lowerneck -19.2493 -3.12946 -7.52701
upperneck 36.2532 -0.0457199 -3.49477
head 16.3314 -1.56366 -0.218803
rclavicle 8.34896e-014 3.49861e-014
rhumerus 32.4955 20.4031 -26.5565
rradius 42.4764
rwrist 8.07407
rhand -3.17963 -4.56423
rfingers 7.12502
rthumb 22.5416 -33.2683
lclavicle 8.34896e-014 3.49861e-014
lhumerus -55.5809 1.12769 61.5511
lradius 32.8039
lwrist -3.40975
lhand -40.0453 73.397
lfingers 7.12502
lthumb -13.0115 257.029
rfemur -126.426 -12.7664 49.7313
rtibia 140.436
rfoot -15.0244 3.55408
rtoes -2.51189
lfemur -141.531 -5.75763 -36.3353
ltibia 140.569
lfoot -11.0651 20.8446
ltoes 41.1686
707
root -3.2924 4.61919 17.9153 3.97537 -1.77113 -27.543
lowerback 3.71808 6.77177 -0.966
upperback -3.31504 8.84958 -2.51916
thorax -5.2553 4.36603 -2.78639
lowerneck -19.2407 -3.20142 -7.64261
upperneck 36.2258 -0.0681526 -3.60507
head 16.3214 -1.60406 -0.251301
rclavicle -6.59965e-014 1.27222e-014
rhumerus 31.6578 20.6544 -26.225
rradius 42.7722
rwrist 7.75298
rhand -3.6361 -4.81896
rfingers 7.12502
rthumb 22.1034 -33.5756
lclavicle -6.59965e-014 1.27222e-014
lhumerus -55.6434 1.10743 61.7786
lradius 32.7487
lwrist -3.3344
lhand -40.0784 73.4801
lfingers 7.12502
lthumb -13.0433 256.948
rfemur -126.585 -12.8769 49.6073
rtibia 140.498
rfoot -14.941 3.59553
rtoes -2.60058
lfemur -141.503 -5.90296 -36.4614
ltibia 140.547
lfoot -11.0656 20.8062
ltoes 41.2044
708
root -3.28483 4.60735 17.9106 3.92679 -1.72308 -27.4725
lowerback 3.71907 6.74454 -0.975926
upperback -3.31247 8.81609 -2.45878
thorax -5.26524 4.35096 -2.71715
lowerneck -19.2292 -3.27038 -7.75479
upperneck 36.2039 -0.0865715 -3.71712
head 16.3134 -1.64271 -0.284454
rclavicle -1.12115e-013 4.13472e-014
rhumerus 30.8081 20.9674 -25.8719
rradius 43.0655
rwrist 7.4829
rhand -4.12269 -5.07233
rfingers 7.12502
rthumb 21.6361 -33.8835
lclavicle -1.12115e-013 4.13472e-014
lhumerus -55.7084 1.0895 62.0045
lradius 32.6872
lwrist -3.2601
lhand -40.0941 73.5746
lfingers 7.12502
lthumb -13.0585 256.854
rfemur -126.733 -12.9939 49.4835
rtibia 140.556
rfoot -14.8603 3.64115
rtoes -2.6823
lfemur -141.464 -6.04138 -36.59
ltibia 140.526
lfoot -11.1231 20.7605
ltoes 41.3132
709
root -3.27716 4.59638 17.9053 3.87069 -1.67246 -27.4064
lowerback 3.72898 6.7149 -0.984928
upperback -3.30979 8.77948 -2.39408
thorax -5.28066 4.33429 -2.64496
lowerneck -19.2132 -3.33406 -7.8605
upperneck 36.1855 -0.0988817 -3.83146
head 16.306 -1.67832 -0.318538
rclavicle -2.78299e-014 6.04305e-014
rhumerus 29.9503 21.3407 -25.5044
rradius 43.3564
rwrist 7.26222
rhand -4.61967 -5.32536
rfingers 7.12502
rthumb 21.1588 -34.1907
lclavicle -2.78299e-014 6.04305e-014
lhumerus -55.7794 1.07674 62.2282
lradius 32.6238
lwrist -3.18849
lhand -40.0831 73.6807
lfingers 7.12502
lthumb -13.0479 256.747
rfemur -126.861 -13.1202 49.3644
rtibia 140.606
rfoot -14.7851 3.68991
rtoes -2.76136
lfemur -141.412 -6.17052 -36.7194
ltibia 140.499
lfoot -11.2122 20.7109
ltoes 41.4572
710
root -3.26941 4.58618 17.8996 3.80824 -1.62042 -27.3484
lowerback 3.74469 6.68281 -0.988284
upperback -3.30504 8.74009 -2.32538
thorax -5.29694 4.31611 -2.57203
lowerneck -19.1979 -3.39329 -7.95885
upperneck 36.1685 -0.106743 -3.94709
head 16.2992 -1.7113 -0.353628
rclavicle 1.08139e-013 -2.54444e-014
rhumerus 29.0837 21.775 -25.1227
rradius 43.6475
rwrist 7.08401
rhand -5.13208 -5.57733
rfingers 7.12502
rthumb 20.6665 -34.497
lclavicle 1.08139e-013 -2.54444e-014
lhumerus -55.8527 1.06857 62.4514
lradius 32.5623
lwrist -3.11253
lhand -40.0675 73.7914
lfingers 7.12502
lthumb -13.0328 256.636
rfemur -126.969 -13.2517 49.252
rtibia 140.647
rfoot -14.7147 3.73936
rtoes -2.84196
lfemur -141.354 -6.28914 -36.8478
ltibia 140.467
lfoot -11.3149 20.6627
ltoes 41.6295
711
root -3.26174 4.57638 17.8939 3.7487 -1.56947 -27.2998
lowerback 3.74925 6.64883 -0.990415
upperback -3.2975 8.69896 -2.24919
thorax -5.30491 4.29736 -2.49025
lowerneck -19.1847 -3.44678 -8.05377
upperneck 36.1515 -0.10765 -4.06156
head 16.2928 -1.74078 -0.387464
rclavicle -4.53229e-014 -1.90833e-014
rhumerus 28.211 22.268 -24.7273
rradius 43.9406
rwrist 6.94631
rhand -5.65764 -5.81313
rfingers 7.12502
rthumb 20.1614 -34.7869
lclavicle -4.53229e-014 -1.90833e-014
lhumerus -55.9283 1.07575 62.6762
lradius 32.5035
lwrist -3.04227
lhand -40.0557 73.8957
lfingers 7.12502
lthumb -13.0215 256.531
rfemur -127.068 -13.3743 49.142
rtibia 140.682
rfoot -14.6465 3.78719
rtoes -2.91325
lfemur -141.303 -6.39771 -36.9774
ltibia 140.436
lfoot -11.427 20.6183
ltoes 41.8159
712
root -3.25406 4.56709 17.8881 3.6897 -1.52317 -27.2616
lowerback 3.75721 6.6114 -0.981301
upperback -3.29257 8.65399 -2.17111
thorax -5.31614 4.2763 -2.41285
lowerneck -19.174 -3.49182 -8.14303
upperneck 36.1365 -0.100799 -4.16853
head 16.2876 -1.7653 -0.417566
rclavicle -1.59028e-014 -6.36111e-015
rhumerus 27.3267 22.8257 -24.3334
rradius 44.245
rwrist 6.8431
rhand -6.18806 -6.03989
rfingers 7.12502
rthumb 19.6516 -35.0666
lclavicle -1.59028e-014 -6.36111e-015
lhumerus -56.0122 1.08687 62.8975
lradius 32.4502
lwrist -2.96311
lhand -40.0516 73.9805
lfingers 7.12502
lthumb -13.0175 256.446
rfemur -127.15 -13.4863 49.0336
rtibia 140.71
rfoot -14.583 3.83221
rtoes -2.97399
lfemur -141.257 -6.49505 -37.1044
ltibia 140.399
lfoot -11.5022 20.5904
ltoes 41.9471
